<svg xmlns="http://www.w3.org/2000/svg" xmlns:xlink="http://www.w3.org/1999/xlink" version="1.1" width="1024" height="768" viewBox="0 0 1024 768" xml:space="preserve">
<g transform="matrix(1.558 0 0 1.558 512 384)">
<g>
		<g transform="matrix(1.4583 0 0 1.4583 -215.0382 -0.3158)"><g><g transform="matrix(1 0 0 1 0 0)">
<path style="fill: rgb(0,89,187);" transform=" translate(-100.0023, -99.2778)" d="M 107.851 76.2358 L 123.6924 122.3198 L 113.7555 122.3198 L 101.0104 85.2366 L 98.9942 85.2366 L 86.2492 122.3198 L 76.3123 122.3198 L 92.1537 76.2358 L 107.851 76.2358 Z"/>
</g></g></g>
		<g transform="matrix(1.4583 0 0 1.4583 -169.0499 -0.3158)"><g><g transform="matrix(1 0 0 1 0 0)">
<path style="fill: rgb(0,89,187);" transform=" translate(-100.0007, -99.2778)" d="M 104.6812 76.2358 L 104.6812 122.3198 L 95.3203 122.3198 L 95.3203 76.2358 L 104.6812 76.2358 Z"/>
</g></g></g>
		<g transform="matrix(1.4583 0 0 1.4583 -146.0547 -0.3158)"><g><g transform="matrix(1 0 0 1 0 0)">
<path style="fill: rgb(0,89,187);" transform=" translate(-100.0012, -99.2778)" d="M 107.9219 122.3198 L 103.6016 122.3198 C 96.6172 122.3198 92.0806 117.7834 92.0806 110.7988 L 92.0806 76.2358 L 101.4414 76.2358 L 101.4414 84.8765 L 107.9219 84.8765 L 107.9219 94.2374 L 101.4414 94.2374 L 101.4414 110.7988 C 101.4414 112.959 101.4414 112.959 103.6016 112.959 L 107.9219 112.959 L 107.9219 122.3198 Z"/>
</g></g></g>
		<g transform="matrix(1.4583 0 0 1.4583 -104.1586 6.0363)"><g><g transform="matrix(1 0 0 1 0 0)">
<path style="fill: rgb(0,89,187);" transform=" translate(-100.0021, -103.6342)" d="M 80.9204 103.4542 C 80.9204 90.8531 87.761 84.5166 100.0022 84.5166 C 112.2432 84.5166 119.0838 90.8531 119.0838 103.4542 L 119.0838 106.6945 L 89.9213 106.6945 C 90.8573 111.0149 93.8816 113.463 97.8419 113.463 L 102.1624 113.463 C 105.1145 113.463 107.4907 112.0949 108.9309 109.6467 L 118.3638 109.6467 C 116.8516 118.6475 110.011 122.7519 100.0022 122.7519 C 87.2571 122.7519 80.9204 115.9113 80.9204 103.4542 Z M 109.6509 98.7738 C 108.4269 95.3895 105.6907 93.4453 102.1624 93.4453 L 97.8419 93.4453 C 94.3136 93.4453 91.5774 95.3895 90.3533 98.7738 L 109.6509 98.7738 Z"/>
</g></g></g>
		<g transform="matrix(1.4583 0 0 1.4583 -57.9596 5.7213)"><g><g transform="matrix(1 0 0 1 0 0)">
<path style="fill: rgb(0,89,187);" transform=" translate(-100.0011, -103.4182)" d="M 99.9292 84.8765 L 99.9292 87.6848 C 102.0173 85.5246 105.0415 84.5166 109.4338 84.5166 L 109.4338 93.7334 L 105.5457 93.7334 C 101.0093 93.7334 99.9292 96.9016 99.9292 102.0141 L 99.9292 122.3198 L 90.5684 122.3198 L 90.5684 84.8765 L 99.9292 84.8765 Z"/>
</g></g></g>
		<g transform="matrix(1.4583 0 0 1.4583 -17.0086 6.0363)"><g><g transform="matrix(1 0 0 1 0 0)">
<path style="fill: rgb(0,89,187);" transform=" translate(-100.0021, -103.6342)" d="M 80.9204 103.4542 C 80.9204 90.8531 87.761 84.5166 100.0022 84.5166 C 112.2432 84.5166 119.0838 90.8531 119.0838 103.4542 L 119.0838 106.6945 L 89.9213 106.6945 C 90.8573 111.0149 93.8816 113.463 97.8419 113.463 L 102.1624 113.463 C 105.1145 113.463 107.4907 112.0949 108.9309 109.6467 L 118.3638 109.6467 C 116.8516 118.6475 110.011 122.7519 100.0022 122.7519 C 87.2571 122.7519 80.9204 115.9113 80.9204 103.4542 Z M 109.6509 98.7738 C 108.4269 95.3895 105.6907 93.4453 102.1624 93.4453 L 97.8419 93.4453 C 94.3136 93.4453 91.5774 95.3895 90.3533 98.7738 L 109.6509 98.7738 Z"/>
</g></g></g>
		<g transform="matrix(1.4583 0 0 1.4583 43.3139 -0.0007)"><g><g transform="matrix(1 0 0 1 0 0)">
<path style="fill: rgb(0,89,187);" transform=" translate(-100.0019, -99.4938)" d="M 80.8842 103.4542 C 80.8842 93.0133 88.0128 84.5166 98.5258 84.5166 C 103.2781 84.5166 107.0225 86.2447 109.7587 89.125 L 109.7587 76.2358 L 119.1195 76.2358 L 119.1195 122.3198 L 109.7587 122.3198 L 109.7587 118.0714 C 107.0225 121.0237 103.2781 122.7518 98.5258 122.7518 C 88.0128 122.7519 80.8842 114.1831 80.8842 103.4542 Z M 97.8057 113.463 L 102.126 113.463 C 107.0225 113.463 109.7587 110.4388 109.7587 105.6144 L 109.7587 101.294 C 109.7587 96.4696 107.0225 93.4453 102.126 93.4453 L 97.8057 93.4453 C 92.9093 93.4453 89.525 97.1897 89.525 103.4542 C 89.525 109.7187 92.9093 113.463 97.8057 113.463 Z"/>
</g></g></g>
		<g transform="matrix(1.4583 0 0 1.4583 99.3837 -0.3158)"><g><g transform="matrix(1 0 0 1 0 0)">
<path style="fill: rgb(38,190,242);" transform=" translate(-100.0018, -99.2778)" d="M 83.8364 76.2358 L 102.054 76.2358 C 110.6228 76.2358 116.1672 81.2762 116.1672 90.2769 C 116.1672 98.8458 110.9107 104.3182 102.054 104.3182 L 89.2368 104.3182 L 89.2368 122.3198 L 83.8364 122.3198 L 83.8364 98.9178 L 102.054 98.9178 C 108.2466 98.9178 110.7669 96.3255 110.7669 90.2769 C 110.7669 84.0845 108.1025 81.6363 102.054 81.6363 L 83.8364 81.6363 L 83.8364 76.2358 Z"/>
</g></g></g>
		<g transform="matrix(1.4583 0 0 1.4583 131.5125 -0.3158)"><g>
		<g transform="matrix(1 0 0 1 0 -20.3418)">
<rect style="fill: rgb(0,89,187);" x="-2.7003" y="-2.7002" width="5.4006" height="5.4004"/>
</g>
		<g transform="matrix(1 0 0 1 0 4.3203)">
<rect style="fill: rgb(38,190,242);" x="-2.7003" y="-18.7216" width="5.4006" height="37.4432"/>
</g>
</g></g>
		<g transform="matrix(1.4583 0 0 1.4583 164.8514 5.9838)"><g><g transform="matrix(1 0 0 1 0 0)">
<path style="fill: rgb(38,190,242);" transform=" translate(-100.0022, -103.5982)" d="M 90.0654 84.8766 L 100.002 98.4857 L 109.939 84.8766 L 116.5635 84.8766 L 103.4585 102.8062 L 117.7158 122.3198 L 111.0908 122.3198 L 100.002 107.1265 L 88.9131 122.3198 L 82.2886 122.3198 L 96.5459 102.8062 L 83.4404 84.8766 L 90.0654 84.8766 Z"/>
</g></g></g>
		<g transform="matrix(1.4583 0 0 1.4583 212.5213 5.9837)"><g><g transform="matrix(1 0 0 1 0 0)">
<path style="fill: rgb(38,190,242);" transform=" translate(-100.0019, -103.5982)" d="M 83.1524 103.5261 C 83.1524 91.0691 89.633 84.5166 100.0019 84.5166 C 110.3708 84.5166 116.8513 91.0691 116.8513 103.5261 L 116.8513 104.9663 L 88.6968 104.9663 C 88.9849 114.0391 92.0811 117.1354 98.0576 117.1354 L 102.594 117.1354 C 106.3384 117.1354 109.1466 114.7592 110.8748 110.0788 L 116.2752 110.0788 C 114.259 118.0714 108.3545 122.6798 100.0018 122.6798 C 89.2009 122.6798 83.1524 115.4793 83.1524 103.5261 Z M 111.1629 99.9258 C 110.4427 92.5093 107.4185 89.917 101.9461 89.917 L 98.0576 89.917 C 92.5852 89.917 89.5609 92.5093 88.8408 99.9258 L 111.1629 99.9258 Z"/>
</g></g></g>
		<g transform="matrix(1.4583 0 0 1.4583 245.6474 -0.3158)"><g><g transform="matrix(1 0 0 1 0 0)">
<path style="fill: rgb(38,190,242);" transform=" translate(-100.001, -99.2779)" d="M 102.7012 76.2359 L 102.7012 122.3198 L 97.3008 122.3198 L 97.3008 76.2359 L 102.7012 76.2359 Z"/>
</g></g></g>
</g>
</g>
</svg>
