<svg xmlns="http://www.w3.org/2000/svg" version="1.1" width="1024" height="768" viewBox="113 321 798 126">
<g transform="matrix(1 0 0 1 512.0002 383.9985)">
<path style="fill: rgb(255,255,255);" transform=" translate(-512.0002, -383.9985)" d="M 194.803 331.1566 L 230.7946 435.8594 L 208.218 435.8594 L 179.2611 351.6064 L 174.6803 351.6064 L 145.7237 435.8594 L 123.147 435.8594 L 159.1387 331.1566 Z M 259.2544 331.1566 L 259.2544 435.8594 L 237.9864 435.8594 L 237.9864 331.1566 Z M 302.4425 435.8594 L 292.6268 435.8594 C 276.7582 435.8594 266.4511 425.5527 266.4511 409.6837 L 266.4511 331.1566 L 287.7188 331.1566 L 287.7188 350.7882 L 302.4425 350.7882 L 302.4425 372.0562 L 287.7188 372.0562 L 287.7188 409.6837 C 287.7188 414.5917 287.7188 414.5917 292.6268 414.5917 L 302.4425 414.5917 Z M 306.3673 392.9957 C 306.3673 364.366 321.9091 349.9695 349.7211 349.9695 C 377.5327 349.9695 393.0745 364.366 393.0745 392.9957 L 393.0745 400.3577 L 326.8173 400.3577 C 328.9439 410.1737 335.8151 415.7357 344.8129 415.7357 L 354.6291 415.7357 C 361.3363 415.7357 366.735 412.6274 370.0071 407.0651 L 391.4387 407.0651 C 388.003 427.5149 372.4611 436.8401 349.7211 436.8401 C 320.7643 436.8401 306.3673 421.2983 306.3673 392.9957 Z M 371.643 382.3619 C 368.862 374.6727 362.6454 370.2555 354.6291 370.2555 L 344.8129 370.2555 C 336.7966 370.2555 330.58 374.6727 327.7988 382.3619 Z M 421.5357 350.787 L 421.5357 357.1674 C 426.2799 352.2595 433.1509 349.9693 443.1302 349.9693 L 443.1302 370.9098 L 434.2964 370.9098 C 423.9897 370.9098 421.5357 378.108 421.5357 389.7236 L 421.5357 435.8581 L 400.268 435.8581 L 400.268 350.787 Z M 442.147 392.9957 C 442.147 364.366 457.6888 349.9695 485.5008 349.9695 C 513.3124 349.9695 528.8542 364.366 528.8542 392.9957 L 528.8542 400.3577 L 462.597 400.3577 C 464.7236 410.1737 471.5948 415.7357 480.5926 415.7357 L 490.4088 415.7357 C 497.116 415.7357 502.5147 412.6274 505.7868 407.0651 L 527.2184 407.0651 C 523.7827 427.5149 508.2408 436.8401 485.5008 436.8401 C 456.544 436.8401 442.147 421.2983 442.147 392.9957 Z M 507.4227 382.3619 C 504.6417 374.6727 498.4251 370.2555 490.4088 370.2555 L 480.5926 370.2555 C 472.5763 370.2555 466.3597 374.6727 463.5785 382.3619 Z M 536.0478 392.9969 C 536.0478 369.2752 552.244 349.9707 576.1295 349.9707 C 586.9267 349.9707 595.434 353.8969 601.6507 360.441 L 601.6507 331.1567 L 622.9184 331.1567 L 622.9184 435.8596 L 601.6507 435.8596 L 601.6507 426.2072 C 595.434 432.9148 586.9267 436.8411 576.1295 436.8411 C 552.244 436.8413 536.0478 417.373 536.0478 392.9969 Z M 574.4934 415.7369 L 584.3092 415.7369 C 595.434 415.7369 601.6506 408.8659 601.6506 397.9049 L 601.6506 388.089 C 601.6506 377.1279 595.434 370.2567 584.3092 370.2567 L 574.4934 370.2567 C 563.3688 370.2567 555.6797 378.764 555.6797 392.9969 C 555.6797 407.2299 563.3688 415.7369 574.4934 415.7369 Z M 630.1119 331.1566 L 671.5023 331.1566 C 690.9706 331.1566 703.5675 342.6084 703.5675 363.058 C 703.5675 382.5265 691.6247 394.9598 671.5023 394.9598 L 642.3816 394.9598 L 642.3816 435.8594 L 630.1119 435.8594 L 630.1119 382.6901 L 671.5023 382.6901 C 685.5719 382.6901 691.298 376.8004 691.298 363.058 C 691.298 348.9888 685.2445 343.4265 671.5023 343.4265 L 630.1119 343.4265 Z M 710.7614 343.4257 L 710.7614 331.1559 L 723.0316 331.1559 L 723.0316 343.4257 Z M 710.7614 435.8593 L 710.7614 350.7883 L 723.0316 350.7883 L 723.0316 435.8593 Z M 746.2621 350.7872 L 768.838 381.7071 L 791.4149 350.7872 L 806.4658 350.7872 L 776.6912 391.5233 L 809.0838 435.8582 L 794.0318 435.8582 L 768.8381 401.339 L 743.6441 435.8582 L 728.5932 435.8582 L 760.9858 391.5233 L 731.2101 350.7872 Z M 804.826 393.1589 C 804.826 364.8566 819.55 349.9693 843.1081 349.9693 C 866.6662 349.9693 881.3899 364.8566 881.3899 393.1589 L 881.3899 396.431 L 817.4229 396.431 C 818.0775 417.0444 825.112 424.0792 838.6907 424.0792 L 848.9974 424.0792 C 857.5046 424.0792 863.8849 418.6805 867.8113 408.0466 L 880.0811 408.0466 C 875.5002 426.2058 862.0852 436.6761 843.1079 436.6761 C 818.5683 436.6761 804.8261 420.3166 804.8261 393.1589 Z M 868.4659 384.979 C 866.8296 368.1287 859.9586 362.239 847.5253 362.239 L 838.6907 362.239 C 826.2574 362.239 819.3862 368.1287 817.7501 384.979 Z M 900.8534 331.1566 L 900.8534 435.8592 L 888.5837 435.8592 L 888.5837 331.1566 Z" />
</g>
</svg>
